<svg width="30" height="30" viewBox="0 0 30 30" fill="none" xmlns="http://www.w3.org/2000/svg">
<path d="M22.5 16.25C22.5 15.5596 21.9404 15 21.25 15H8.75L8.60422 15.0084C7.98255 15.0806 7.5 15.609 7.5 16.25C7.5 16.9404 8.05964 17.5 8.75 17.5H21.25L21.3958 17.4916C22.0175 17.4194 22.5 16.891 22.5 16.25Z" fill="#15CDCB"/>
<path d="M16.2552 21.25C16.2552 20.5596 15.6955 20 15.0052 20H8.75L8.60422 20.0084C7.98255 20.0806 7.5 20.609 7.5 21.25C7.5 21.9404 8.05964 22.5 8.75 22.5H15.0052L15.151 22.4916C15.7726 22.4194 16.2552 21.891 16.2552 21.25Z" fill="#15CDCB"/>
<path fill-rule="evenodd" clip-rule="evenodd" d="M5.625 2.5C3.89911 2.5 2.5 3.89911 2.5 5.625V24.375C2.5 26.1009 3.89911 27.5 5.625 27.5H24.375C26.1009 27.5 27.5 26.1009 27.5 24.375V8.25406C27.5 7.90766 27.3563 7.57679 27.1031 7.34039L22.2811 2.83837C22.0575 2.62853 21.7567 2.5 21.4259 2.5H5.625ZM16.2538 5H20.9337L25 8.7975V24.375C25 24.7202 24.7202 25 24.375 25H5.625C5.27981 25 5 24.7202 5 24.375V5.625C5 5.27982 5.27982 5 5.625 5H7.5V8.36537C7.5 9.429 8.42786 10 9.375 10H14.375C15.3221 10 16.25 9.429 16.25 8.36537L16.2538 5ZM10 5V7.5H13.7513L13.7538 5H10Z" fill="#15CDCB"/>
</svg>
